<svg xmlns="http://www.w3.org/2000/svg" viewBox="0 0 1280 1016" width="1280" height="1016" font-family="Helvetica, Arial, sans-serif">
<rect width="1280" height="1016" fill="#0e1a2b"/>
<text x="40.0" y="44.0" font-size="26" fill="#e6eef7" text-anchor="start" font-weight="bold">THE ESCORT DOCK — TWO COLUMNS OF TEN</text>
<text x="40.0" y="68.0" font-size="13" fill="#9fb3c8" text-anchor="start" font-weight="normal">Iskar 7,200 × 1,360 × 900 m · twenty Casakins nose-down in a centreline dock 1,760 m long and 450 m wide · to scale</text>
<text x="40.0" y="104.0" font-size="15" fill="#4fb3ff" text-anchor="start" font-weight="bold">AS BUILT (Rev 151)</text>
<text x="660.0" y="104.0" font-size="15" fill="#ffd98a" text-anchor="start" font-weight="bold">TWO COLUMNS OF TEN</text>
<text x="40.0" y="128.0" font-size="12" fill="#9fb3c8" text-anchor="start" font-weight="normal">From above</text>
<text x="660.0" y="128.0" font-size="12" fill="#9fb3c8" text-anchor="start" font-weight="normal">From above</text>
<polygon points="40.0,190.0 77.5,163.8 77.5,156.2 96.2,156.2 96.2,150.6 115.0,150.6 115.0,145.8 130.0,145.8 130.0,142.8 437.5,142.8 437.5,148.8 452.5,148.8 452.5,152.5 580.0,152.5 580.0,227.5 452.5,227.5 452.5,231.2 437.5,231.2 437.5,237.2 130.0,237.2 130.0,234.2 115.0,234.2 115.0,229.4 96.2,229.4 96.2,223.8 77.5,223.8 77.5,216.2 40.0,190.0" fill="#1d3150" fill-opacity="1" stroke="#9fc3e6" stroke-width="1"/>
<rect x="133.8" y="139.0" width="165.0" height="3.8" fill="#26406a" stroke="#9fc3e6" stroke-width="0.8" />
<rect x="133.8" y="237.2" width="165.0" height="3.8" fill="#26406a" stroke="#9fc3e6" stroke-width="0.8" />
<line x1="115.0" y1="190.0" x2="437.5" y2="190.0" stroke="#5d7ea3" stroke-width="1.2"/>
<rect x="231.2" y="183.2" width="30.0" height="13.5" fill="#33507a" stroke="#9fc3e6" stroke-width="0.8" />
<polygon points="660.0,190.0 697.5,163.8 697.5,156.2 716.2,156.2 716.2,150.6 735.0,150.6 735.0,145.8 750.0,145.8 750.0,142.8 1057.5,142.8 1057.5,148.8 1072.5,148.8 1072.5,152.5 1200.0,152.5 1200.0,227.5 1072.5,227.5 1072.5,231.2 1057.5,231.2 1057.5,237.2 750.0,237.2 750.0,234.2 735.0,234.2 735.0,229.4 716.2,229.4 716.2,223.8 697.5,223.8 697.5,216.2 660.0,190.0" fill="#1d3150" fill-opacity="1" stroke="#9fc3e6" stroke-width="1"/>
<rect x="753.8" y="139.0" width="165.0" height="3.8" fill="#26406a" stroke="#9fc3e6" stroke-width="0.8" />
<rect x="753.8" y="237.2" width="165.0" height="3.8" fill="#26406a" stroke="#9fc3e6" stroke-width="0.8" />
<line x1="735.0" y1="190.0" x2="1057.5" y2="190.0" stroke="#5d7ea3" stroke-width="1.2"/>
<rect x="768.8" y="183.2" width="30.0" height="13.5" fill="#33507a" stroke="#9fc3e6" stroke-width="0.8" />
<text x="40.0" y="255.0" font-size="12" fill="#9fb3c8" text-anchor="start" font-weight="normal">From the side</text>
<text x="660.0" y="255.0" font-size="12" fill="#9fb3c8" text-anchor="start" font-weight="normal">From the side</text>
<polygon points="40.0,318.2 77.5,301.4 77.5,295.8 115.0,289.0 130.0,284.5 437.5,284.5 437.5,293.5 452.5,293.5 580.0,293.5 580.0,334.0 452.5,334.0 437.5,343.0 130.0,343.0 115.0,338.5 77.5,331.8 40.0,318.2" fill="#1d3150" fill-opacity="1" stroke="#9fc3e6" stroke-width="1"/>
<rect x="231.2" y="280.0" width="30.0" height="4.5" fill="#33507a" stroke="#9fc3e6" stroke-width="0.8" />
<rect x="133.8" y="302.6" width="165.0" height="8.2" fill="#26406a" stroke="#9fc3e6" stroke-width="0.8" />
<text x="586.0" y="313.8" font-size="10" fill="#9fb3c8" text-anchor="start" font-weight="normal">840 m</text>
<polygon points="660.0,318.2 697.5,299.1 697.5,291.2 735.0,284.5 750.0,280.0 1057.5,280.0 1057.5,289.0 1072.5,289.0 1200.0,289.0 1200.0,334.0 1072.5,334.0 1057.5,343.0 750.0,343.0 735.0,338.5 697.5,331.8 660.0,318.2" fill="#1d3150" fill-opacity="1" stroke="#9fc3e6" stroke-width="1"/>
<rect x="768.8" y="275.5" width="30.0" height="4.5" fill="#33507a" stroke="#9fc3e6" stroke-width="0.8" />
<rect x="753.8" y="300.1" width="165.0" height="8.2" fill="#26406a" stroke="#9fc3e6" stroke-width="0.8" />
<text x="1206.0" y="311.5" font-size="10" fill="#9fb3c8" text-anchor="start" font-weight="normal">900 m</text>
<text x="40.0" y="372.0" font-size="12" fill="#9fb3c8" text-anchor="start" font-weight="normal">From below</text>
<text x="660.0" y="372.0" font-size="12" fill="#9fb3c8" text-anchor="start" font-weight="normal">From below</text>
<polygon points="40.0,434.0 77.5,407.8 77.5,400.2 96.2,400.2 96.2,394.6 115.0,394.6 115.0,389.8 130.0,389.8 130.0,386.8 437.5,386.8 437.5,392.8 452.5,392.8 452.5,396.5 580.0,396.5 580.0,471.5 452.5,471.5 452.5,475.2 437.5,475.2 437.5,481.2 130.0,481.2 130.0,478.2 115.0,478.2 115.0,473.4 96.2,473.4 96.2,467.8 77.5,467.8 77.5,460.2 40.0,434.0" fill="#1d3150" fill-opacity="1" stroke="#9fc3e6" stroke-width="1"/>
<rect x="133.8" y="383.0" width="165.0" height="3.8" fill="#26406a" stroke="#9fc3e6" stroke-width="0.8" />
<rect x="133.8" y="481.2" width="165.0" height="3.8" fill="#26406a" stroke="#9fc3e6" stroke-width="0.8" />
<rect x="145.0" y="394.4" width="56.2" height="12.4" fill="#0b1522" stroke="#9fc3e6" stroke-width="0.6" />
<rect x="145.0" y="408.6" width="56.2" height="12.4" fill="#0b1522" stroke="#9fc3e6" stroke-width="0.6" />
<rect x="203.1" y="394.4" width="56.2" height="12.4" fill="#0b1522" stroke="#9fc3e6" stroke-width="0.6" />
<rect x="203.1" y="408.6" width="56.2" height="12.4" fill="#0b1522" stroke="#9fc3e6" stroke-width="0.6" />
<rect x="261.2" y="394.4" width="56.2" height="12.4" fill="#0b1522" stroke="#9fc3e6" stroke-width="0.6" />
<rect x="261.2" y="408.6" width="56.2" height="12.4" fill="#0b1522" stroke="#9fc3e6" stroke-width="0.6" />
<rect x="145.0" y="454.4" width="56.2" height="12.4" fill="#0b1522" stroke="#9fc3e6" stroke-width="0.6" />
<rect x="145.0" y="468.6" width="56.2" height="12.4" fill="#0b1522" stroke="#9fc3e6" stroke-width="0.6" />
<rect x="203.1" y="454.4" width="56.2" height="12.4" fill="#0b1522" stroke="#9fc3e6" stroke-width="0.6" />
<rect x="203.1" y="468.6" width="56.2" height="12.4" fill="#0b1522" stroke="#9fc3e6" stroke-width="0.6" />
<rect x="261.2" y="454.4" width="56.2" height="12.4" fill="#0b1522" stroke="#9fc3e6" stroke-width="0.6" />
<rect x="261.2" y="468.6" width="56.2" height="12.4" fill="#0b1522" stroke="#9fc3e6" stroke-width="0.6" />
<polygon points="660.0,434.0 697.5,407.8 697.5,400.2 716.2,400.2 716.2,394.6 735.0,394.6 735.0,389.8 750.0,389.8 750.0,386.8 1057.5,386.8 1057.5,392.8 1072.5,392.8 1072.5,396.5 1200.0,396.5 1200.0,471.5 1072.5,471.5 1072.5,475.2 1057.5,475.2 1057.5,481.2 750.0,481.2 750.0,478.2 735.0,478.2 735.0,473.4 716.2,473.4 716.2,467.8 697.5,467.8 697.5,460.2 660.0,434.0" fill="#1d3150" fill-opacity="1" stroke="#9fc3e6" stroke-width="1"/>
<rect x="753.8" y="383.0" width="165.0" height="3.8" fill="#26406a" stroke="#9fc3e6" stroke-width="0.8" />
<rect x="753.8" y="481.2" width="165.0" height="3.8" fill="#26406a" stroke="#9fc3e6" stroke-width="0.8" />
<rect x="819.6" y="419.1" width="10.9" height="13.9" fill="#0b1522" stroke="#ffd98a" stroke-width="0.6" />
<rect x="819.6" y="434.9" width="10.9" height="13.9" fill="#0b1522" stroke="#ffd98a" stroke-width="0.6" />
<rect x="832.6" y="419.1" width="10.9" height="13.9" fill="#0b1522" stroke="#ffd98a" stroke-width="0.6" />
<rect x="832.6" y="434.9" width="10.9" height="13.9" fill="#0b1522" stroke="#ffd98a" stroke-width="0.6" />
<rect x="845.5" y="419.1" width="10.9" height="13.9" fill="#0b1522" stroke="#ffd98a" stroke-width="0.6" />
<rect x="845.5" y="434.9" width="10.9" height="13.9" fill="#0b1522" stroke="#ffd98a" stroke-width="0.6" />
<rect x="858.5" y="419.1" width="10.9" height="13.9" fill="#0b1522" stroke="#ffd98a" stroke-width="0.6" />
<rect x="858.5" y="434.9" width="10.9" height="13.9" fill="#0b1522" stroke="#ffd98a" stroke-width="0.6" />
<rect x="871.5" y="419.1" width="10.9" height="13.9" fill="#0b1522" stroke="#ffd98a" stroke-width="0.6" />
<rect x="871.5" y="434.9" width="10.9" height="13.9" fill="#0b1522" stroke="#ffd98a" stroke-width="0.6" />
<rect x="884.5" y="419.1" width="10.9" height="13.9" fill="#0b1522" stroke="#ffd98a" stroke-width="0.6" />
<rect x="884.5" y="434.9" width="10.9" height="13.9" fill="#0b1522" stroke="#ffd98a" stroke-width="0.6" />
<rect x="897.5" y="419.1" width="10.9" height="13.9" fill="#0b1522" stroke="#ffd98a" stroke-width="0.6" />
<rect x="897.5" y="434.9" width="10.9" height="13.9" fill="#0b1522" stroke="#ffd98a" stroke-width="0.6" />
<rect x="910.4" y="419.1" width="10.9" height="13.9" fill="#0b1522" stroke="#ffd98a" stroke-width="0.6" />
<rect x="910.4" y="434.9" width="10.9" height="13.9" fill="#0b1522" stroke="#ffd98a" stroke-width="0.6" />
<rect x="923.4" y="419.1" width="10.9" height="13.9" fill="#0b1522" stroke="#ffd98a" stroke-width="0.6" />
<rect x="923.4" y="434.9" width="10.9" height="13.9" fill="#0b1522" stroke="#ffd98a" stroke-width="0.6" />
<rect x="936.4" y="419.1" width="10.9" height="13.9" fill="#0b1522" stroke="#ffd98a" stroke-width="0.6" />
<rect x="936.4" y="434.9" width="10.9" height="13.9" fill="#0b1522" stroke="#ffd98a" stroke-width="0.6" />
<text x="40.0" y="508.0" font-size="11" fill="#9fb3c8" text-anchor="start" font-weight="normal">two long keel slots, 12 lane doors</text>
<text x="660.0" y="508.0" font-size="11" fill="#ffd98a" text-anchor="start" font-weight="normal">20 square doors in a double row down the keel centreline</text>
<text x="40.0" y="532.0" font-size="12" fill="#e6eef7" text-anchor="start" font-weight="normal">Visible differences: 60 m taller, a double row of keel doors, island 1 km further forward. Wings, prow, beam, length and engine block are unchanged.</text>
<text x="40.0" y="572.0" font-size="16" fill="#4fb3ff" text-anchor="start" font-weight="bold">CROSS-SECTION THROUGH THE DOCK, LOOKING FORWARD</text>
<text x="40.0" y="590.0" font-size="12" fill="#9fb3c8" text-anchor="start" font-weight="normal">The dock sits on the centreline; the hangar wings and districts run past it on both sides</text>
<polygon points="78.0,936.0 531.6,936.0 531.6,799.2 549.6,799.2 549.6,734.4 528.0,633.6 81.6,633.6 60.0,734.4 60.0,799.2 78.0,799.2" fill="#1d3150" fill-opacity="1" stroke="#9fc3e6" stroke-width="1"/>
<rect x="60.0" y="781.2" width="95.4" height="14.4" fill="#1f3b33" stroke="#7fd1b0" stroke-width="0.8" />
<rect x="60.0" y="756.0" width="113.4" height="21.6" fill="#13243a" stroke="#9fc3e6" stroke-width="0.8" />
<rect x="454.2" y="781.2" width="95.4" height="14.4" fill="#1f3b33" stroke="#7fd1b0" stroke-width="0.8" />
<rect x="436.2" y="756.0" width="113.4" height="21.6" fill="#13243a" stroke="#9fc3e6" stroke-width="0.8" />
<text x="107.5" y="792.2" font-size="9" fill="#bfeedd" text-anchor="middle" font-weight="normal">Hangar Bay</text>
<text x="502.1" y="792.2" font-size="9" fill="#bfeedd" text-anchor="middle" font-weight="normal">Hangar Bay</text>
<text x="116.5" y="770.0" font-size="9" fill="#9fb3c8" text-anchor="middle" font-weight="normal">Frigate Deck</text>
<text x="492.7" y="770.0" font-size="9" fill="#9fb3c8" text-anchor="middle" font-weight="normal">Frigate Deck</text>
<text x="142.8" y="856.8" font-size="10" fill="#9fb3c8" text-anchor="middle" font-weight="normal">districts</text>
<text x="466.8" y="856.8" font-size="10" fill="#9fb3c8" text-anchor="middle" font-weight="normal">districts</text>
<text x="142.8" y="684.0" font-size="10" fill="#9fb3c8" text-anchor="middle" font-weight="normal">districts</text>
<text x="466.8" y="684.0" font-size="10" fill="#9fb3c8" text-anchor="middle" font-weight="normal">districts</text>
<rect x="224.3" y="633.6" width="160.9" height="302.4" fill="#2a3f5c" stroke="#ffd98a" stroke-width="1.2" />
<rect x="224.3" y="633.6" width="160.9" height="18.0" fill="#203550" stroke="#5d7ea3" stroke-width="0.6" />
<rect x="233.3" y="651.6" width="67.0" height="273.6" fill="#13243a" stroke="#9fc3e6" stroke-width="0.8" />
<polygon points="238.7,657.0 294.9,657.0 294.9,895.5 266.8,916.2 238.7,895.5" fill="#4fb3ff" fill-opacity="0.9" stroke="#e6eef7" stroke-width="0.6"/>
<rect x="234.3" y="925.2" width="65.0" height="10.8" fill="#4c6d96" stroke="#9fc3e6" stroke-width="0.6" />
<rect x="309.3" y="651.6" width="67.0" height="273.6" fill="#13243a" stroke="#9fc3e6" stroke-width="0.8" />
<polygon points="314.7,657.0 370.9,657.0 370.9,895.5 342.8,916.2 314.7,895.5" fill="#4fb3ff" fill-opacity="0.9" stroke="#e6eef7" stroke-width="0.6"/>
<rect x="310.3" y="925.2" width="65.0" height="10.8" fill="#4c6d96" stroke="#9fc3e6" stroke-width="0.6" />
<rect x="222.3" y="880.0" width="13.0" height="4.0" fill="#7fd1b0" stroke="none" stroke-width="1" />
<rect x="222.3" y="808.0" width="13.0" height="4.0" fill="#7fd1b0" stroke="none" stroke-width="1" />
<rect x="222.3" y="736.0" width="13.0" height="4.0" fill="#7fd1b0" stroke="none" stroke-width="1" />
<rect x="222.3" y="682.0" width="13.0" height="4.0" fill="#7fd1b0" stroke="none" stroke-width="1" />
<rect x="298.3" y="880.0" width="13.0" height="4.0" fill="#7fd1b0" stroke="none" stroke-width="1" />
<rect x="298.3" y="808.0" width="13.0" height="4.0" fill="#7fd1b0" stroke="none" stroke-width="1" />
<rect x="298.3" y="736.0" width="13.0" height="4.0" fill="#7fd1b0" stroke="none" stroke-width="1" />
<rect x="298.3" y="682.0" width="13.0" height="4.0" fill="#7fd1b0" stroke="none" stroke-width="1" />
<rect x="374.3" y="880.0" width="13.0" height="4.0" fill="#7fd1b0" stroke="none" stroke-width="1" />
<rect x="374.3" y="808.0" width="13.0" height="4.0" fill="#7fd1b0" stroke="none" stroke-width="1" />
<rect x="374.3" y="736.0" width="13.0" height="4.0" fill="#7fd1b0" stroke="none" stroke-width="1" />
<rect x="374.3" y="682.0" width="13.0" height="4.0" fill="#7fd1b0" stroke="none" stroke-width="1" />
<line x1="224.3" y1="948.0" x2="385.3" y2="948.0" stroke="#9fb3c8" stroke-width="0.8"/>
<text x="304.8" y="962.0" font-size="10" fill="#9fb3c8" text-anchor="middle" font-weight="normal">450 m</text>
<line x1="60.0" y1="974.0" x2="549.6" y2="974.0" stroke="#9fb3c8" stroke-width="0.8"/>
<text x="304.8" y="988.0" font-size="10" fill="#9fb3c8" text-anchor="middle" font-weight="normal">1,360 m at the wings</text>
<line x1="559.6" y1="936.0" x2="559.6" y2="633.6" stroke="#9fb3c8" stroke-width="0.8"/>
<text x="563.6" y="784.8" font-size="10" fill="#9fb3c8" text-anchor="start" font-weight="normal">840 m hull</text>
<text x="639.6" y="572.0" font-size="16" fill="#4fb3ff" text-anchor="start" font-weight="bold">LENGTHWISE, ONE COLUMN (port)</text>
<text x="639.6" y="590.0" font-size="12" fill="#9fb3c8" text-anchor="start" font-weight="normal">Ten shafts; five per battle group</text>
<rect x="639.6" y="684.0" width="528.0" height="252.0" fill="#2a3f5c" stroke="#ffd98a" stroke-width="1.2" />
<rect x="639.6" y="684.0" width="528.0" height="15.0" fill="#203550" stroke="#5d7ea3" stroke-width="0.6" />
<rect x="648.0" y="699.0" width="43.5" height="228.0" fill="#13243a" stroke="#9fc3e6" stroke-width="0.6" />
<polygon points="652.5,703.5 687.0,703.5 687.0,902.2 669.7,919.5 652.5,902.2" fill="#4fb3ff" fill-opacity="0.9" stroke="#e6eef7" stroke-width="0.6"/>
<rect x="699.9" y="699.0" width="43.5" height="228.0" fill="#13243a" stroke="#9fc3e6" stroke-width="0.6" />
<polygon points="704.4,703.5 738.9,703.5 738.9,902.2 721.6,919.5 704.4,902.2" fill="#4fb3ff" fill-opacity="0.9" stroke="#e6eef7" stroke-width="0.6"/>
<rect x="751.8" y="699.0" width="43.5" height="228.0" fill="#13243a" stroke="#9fc3e6" stroke-width="0.6" />
<polygon points="756.3,703.5 790.8,703.5 790.8,902.2 773.5,919.5 756.3,902.2" fill="#4fb3ff" fill-opacity="0.9" stroke="#e6eef7" stroke-width="0.6"/>
<rect x="803.7" y="699.0" width="43.5" height="228.0" fill="#13243a" stroke="#9fc3e6" stroke-width="0.6" />
<polygon points="808.2,703.5 842.7,703.5 842.7,902.2 825.4,919.5 808.2,902.2" fill="#4fb3ff" fill-opacity="0.9" stroke="#e6eef7" stroke-width="0.6"/>
<rect x="855.6" y="699.0" width="43.5" height="228.0" fill="#13243a" stroke="#9fc3e6" stroke-width="0.6" />
<polygon points="860.1,703.5 894.6,703.5 894.6,902.2 877.3,919.5 860.1,902.2" fill="#4fb3ff" fill-opacity="0.9" stroke="#e6eef7" stroke-width="0.6"/>
<rect x="907.5" y="699.0" width="43.5" height="228.0" fill="#13243a" stroke="#9fc3e6" stroke-width="0.6" />
<polygon points="912.0,703.5 946.5,703.5 946.5,902.2 929.2,919.5 912.0,902.2" fill="#8fd0ff" fill-opacity="0.9" stroke="#e6eef7" stroke-width="0.6"/>
<rect x="959.4" y="699.0" width="43.5" height="228.0" fill="#13243a" stroke="#9fc3e6" stroke-width="0.6" />
<polygon points="963.9,703.5 998.4,703.5 998.4,902.2 981.1,919.5 963.9,902.2" fill="#8fd0ff" fill-opacity="0.9" stroke="#e6eef7" stroke-width="0.6"/>
<rect x="1011.3" y="699.0" width="43.5" height="228.0" fill="#13243a" stroke="#9fc3e6" stroke-width="0.6" />
<polygon points="1015.8,703.5 1050.3,703.5 1050.3,902.2 1033.0,919.5 1015.8,902.2" fill="#8fd0ff" fill-opacity="0.9" stroke="#e6eef7" stroke-width="0.6"/>
<rect x="1063.2" y="699.0" width="43.5" height="228.0" fill="#13243a" stroke="#9fc3e6" stroke-width="0.6" />
<polygon points="1067.7,703.5 1102.2,703.5 1102.2,902.2 1084.9,919.5 1067.7,902.2" fill="#8fd0ff" fill-opacity="0.9" stroke="#e6eef7" stroke-width="0.6"/>
<rect x="1115.1" y="699.0" width="43.5" height="228.0" fill="#13243a" stroke="#9fc3e6" stroke-width="0.6" />
<polygon points="1119.6,703.5 1154.1,703.5 1154.1,902.2 1136.8,919.5 1119.6,902.2" fill="#8fd0ff" fill-opacity="0.9" stroke="#e6eef7" stroke-width="0.6"/>
<text x="771.6" y="950.0" font-size="10" fill="#4fb3ff" text-anchor="middle" font-weight="bold">Battle Group I</text>
<text x="1035.6" y="950.0" font-size="10" fill="#8fd0ff" text-anchor="middle" font-weight="bold">Battle Group II</text>
<text x="639.6" y="966.0" font-size="10" fill="#9fb3c8" text-anchor="start" font-weight="normal">starboard column: Groups III and IV</text>
<line x1="639.6" y1="976.0" x2="1167.6" y2="976.0" stroke="#9fb3c8" stroke-width="0.8"/>
<text x="903.6" y="990.0" font-size="10" fill="#9fb3c8" text-anchor="middle" font-weight="normal">1,760 m</text>
<text x="635.6" y="678.0" font-size="10" fill="#9fb3c8" text-anchor="start" font-weight="normal">← Keep and wings forward</text>
<text x="1167.6" y="678.0" font-size="10" fill="#9fb3c8" text-anchor="end" font-weight="normal">industrial belt →</text>
</svg>